# This file uses centimeters as units for non-parametric coordinates.

mtllib minioncubo.mtl
g default
v -3.142484 -0.064011 3.142484
v 3.142484 -0.064011 3.142484
v -3.142484 6.220956 3.142484
v 3.142484 6.220956 3.142484
v -3.142484 6.220955 -3.142484
v 3.142484 6.220956 -3.142484
v -3.142484 -0.064011 -3.142484
v 3.142484 -0.064011 -3.142484
vt 0.321325 0.010604
vt 0.166197 0.480253
vt 0.165035 0.323583
vt 0.322424 0.166964
vt 0.166197 0.480253
vt 0.165017 0.166968
vt 0.321513 0.480273
vt 0.321702 0.636082
vt 0.166007 0.010587
vt 0.478266 0.168005
vt 0.165017 0.166968
vt 0.322428 0.323592
vt 0.165035 0.323583
vt 0.322424 0.166964
vt 0.009320 0.168008
vt 0.321513 0.480273
vt 0.165035 0.323583
vt 0.009330 0.322733
vt 0.478256 0.322730
vt 0.322428 0.323592
vt 0.322424 0.166964
vt 0.165017 0.166968
vt 0.166386 0.636062
vt 0.322428 0.323592
vn 0.000000 0.000000 1.000000
vn 0.000000 0.000000 1.000000
vn 0.000000 0.000000 1.000000
vn 0.000000 0.000000 1.000000
vn -0.000000 1.000000 -0.000000
vn -0.000000 1.000000 -0.000000
vn -0.000000 1.000000 -0.000000
vn -0.000000 1.000000 -0.000000
vn 0.000000 0.000000 -1.000000
vn 0.000000 0.000000 -1.000000
vn 0.000000 0.000000 -1.000000
vn 0.000000 0.000000 -1.000000
vn 0.000000 -1.000000 0.000000
vn 0.000000 -1.000000 0.000000
vn 0.000000 -1.000000 0.000000
vn 0.000000 -1.000000 0.000000
vn 1.000000 0.000000 0.000000
vn 1.000000 0.000000 0.000000
vn 1.000000 0.000000 0.000000
vn 1.000000 0.000000 0.000000
vn -1.000000 -0.000000 0.000000
vn -1.000000 -0.000000 0.000000
vn -1.000000 -0.000000 0.000000
vn -1.000000 -0.000000 0.000000
s off
g pCube1
usemtl lambert2SG
f 1/10/1 2/19/2 4/20/3 3/14/4
f 3/4/5 4/12/6 6/13/7 5/11/8
f 5/6/9 6/17/10 8/18/11 7/15/12
f 7/8/13 8/23/14 2/2/15 1/16/16
f 2/24/17 8/7/18 6/5/19 4/3/20
f 7/9/21 1/1/22 3/21/23 5/22/24
